<mxfile host="Electron" modified="2024-06-25T09:27:27.766Z" agent="Mozilla/5.0 (Windows NT 10.0; Win64; x64) AppleWebKit/537.36 (KHTML, like Gecko) draw.io/24.2.5 Chrome/120.0.6099.109 Electron/28.1.0 Safari/537.36" etag="e5r2tozMnehq4pPAtPX3" version="24.2.5" type="device">
  <diagram name="Página-1" id="l-N7QudMoY_lzDkYag7e">
    <mxGraphModel dx="1434" dy="836" grid="1" gridSize="10" guides="1" tooltips="1" connect="1" arrows="1" fold="1" page="1" pageScale="1" pageWidth="827" pageHeight="1169" math="0" shadow="0">
      <root>
        <mxCell id="0" />
        <mxCell id="1" parent="0" />
        <mxCell id="UFMTEydnyAoAydA2JnGl-3" value="&lt;span style=&quot;font-size: 15px;&quot;&gt;Digitalización&lt;/span&gt;" style="rounded=1;whiteSpace=wrap;html=1;" parent="1" vertex="1">
          <mxGeometry x="210" y="320" width="120" height="60" as="geometry" />
        </mxCell>
        <mxCell id="UFMTEydnyAoAydA2JnGl-4" value="" style="endArrow=classic;html=1;rounded=0;" parent="1" edge="1">
          <mxGeometry width="50" height="50" relative="1" as="geometry">
            <mxPoint x="150" y="349.5" as="sourcePoint" />
            <mxPoint x="210" y="349.5" as="targetPoint" />
          </mxGeometry>
        </mxCell>
        <mxCell id="UFMTEydnyAoAydA2JnGl-5" value="" style="endArrow=classic;html=1;rounded=0;" parent="1" edge="1">
          <mxGeometry width="50" height="50" relative="1" as="geometry">
            <mxPoint x="330" y="349.5" as="sourcePoint" />
            <mxPoint x="390" y="349.5" as="targetPoint" />
          </mxGeometry>
        </mxCell>
        <mxCell id="UFMTEydnyAoAydA2JnGl-6" value="&lt;font style=&quot;font-size: 14px;&quot;&gt;V(t)&lt;/font&gt;" style="text;html=1;align=center;verticalAlign=middle;whiteSpace=wrap;rounded=0;" parent="1" vertex="1">
          <mxGeometry x="140" y="320" width="60" height="30" as="geometry" />
        </mxCell>
        <mxCell id="UFMTEydnyAoAydA2JnGl-7" value="&lt;font style=&quot;font-size: 14px;&quot;&gt;salida digital&lt;/font&gt;" style="text;html=1;align=center;verticalAlign=middle;whiteSpace=wrap;rounded=0;" parent="1" vertex="1">
          <mxGeometry x="330" y="296" width="70" height="54" as="geometry" />
        </mxCell>
      </root>
    </mxGraphModel>
  </diagram>
</mxfile>
